<svg id="Layer_1" data-name="Layer 1" xmlns="http://www.w3.org/2000/svg" viewBox="0 0 325.61 75.95"><defs><style>.cls-1{fill:#0350fd;}.cls-2{fill:#212322;}</style></defs><path class="cls-1" d="M128.43,32.76A33.83,33.83,0,0,0,84.49,1.55a32.8,32.8,0,0,0-4.75,1.93,33.32,33.32,0,0,0-4.11,2.35c-.4.27-.77.58-1.16.87a33.81,33.81,0,0,0-7.9,8.2L66.5,15,58.21,27.69,48.12,43.12h0a17,17,0,0,1-14.2,7.74c-.29,0-.57,0-.85,0l-.28,0c-.42,0-.85-.07-1.27-.13a17,17,0,0,1-12.79-9.18,16.85,16.85,0,0,1-1.82-7.62,17,17,0,0,1,32-7.95c.06.12.15.23.21.36l.22-.34,9.66-14.78A33.83,33.83,0,1,0,31.47,67.61l.73,0c.55,0,1.1.08,1.67.08A33.9,33.9,0,0,0,44,66.19a34,34,0,0,0,4.75-1.94,33.32,33.32,0,0,0,4.11-2.35,34,34,0,0,0,9.06-9.06L80.27,24.75h0A17.08,17.08,0,0,1,90,17.51a17.41,17.41,0,0,1,3.7-.58c.3,0,.59-.07.88-.07s.57,0,.85.05a17,17,0,0,1,14.17,9,17,17,0,0,1-15,25c-.39,0-.76-.06-1.14-.08a17,17,0,0,1-14-9.34L56.82,76H77.05l6.57-10.08a33.37,33.37,0,0,0,8.93,1.75h0l.43,0h0c.55,0,1.09.09,1.64.09a33.92,33.92,0,0,0,33.87-33.86C128.49,33.49,128.45,33.13,128.43,32.76Z"/><path class="cls-2" d="M146.44,23.47A8.22,8.22,0,0,1,143.78,17a8.22,8.22,0,0,1,2.66-6.46,9.62,9.62,0,0,1,12.62,0A8.25,8.25,0,0,1,161.71,17a8.25,8.25,0,0,1-2.65,6.46,9.62,9.62,0,0,1-12.62,0Zm10.71-2A5.91,5.91,0,0,0,158.9,17a5.91,5.91,0,0,0-1.75-4.5,6.67,6.67,0,0,0-8.81,0,5.91,5.91,0,0,0-1.75,4.5,5.91,5.91,0,0,0,1.75,4.5,6.67,6.67,0,0,0,8.81,0Z"/><path class="cls-2" d="M168.53,25.41h-2.8V8.61h2.8v7h3.4l5.32-7h3.25L174.13,17l7.14,8.44H178l-6.16-7.21h-3.29Z"/><path class="cls-2" d="M191,25.41h-2.8V11.2H182V8.61h15.15V11.2H191Z"/><path class="cls-2" d="M213.85,21.91a1.15,1.15,0,0,0,1.3,1.29,4.24,4.24,0,0,0,1.29-.24v2.28a6.2,6.2,0,0,1-2.09.38,2.88,2.88,0,0,1-3.08-2,9.93,9.93,0,0,1-6.55,2.24,6.74,6.74,0,0,1-4.18-1.31,4.47,4.47,0,0,1-1.73-3.8A4.68,4.68,0,0,1,201,16.4a10.15,10.15,0,0,1,5.37-1.35,21.33,21.33,0,0,1,4.66.52V15a3.93,3.93,0,0,0-1.27-3.06,5.06,5.06,0,0,0-3.53-1.14A15.46,15.46,0,0,0,200.13,12V9.31a19.77,19.77,0,0,1,6.41-1.12A7.46,7.46,0,0,1,211.91,10a6.92,6.92,0,0,1,1.94,5.3Zm-12.18-1.33a2.4,2.4,0,0,0,1.07,2.12,4.48,4.48,0,0,0,2.57.71A7.5,7.5,0,0,0,211.06,21V17.88a22,22,0,0,0-4.28-.49,8,8,0,0,0-3.62.76A2.54,2.54,0,0,0,201.67,20.58Z"/><path class="cls-2" d="M230.9,33.11h-2.8V25.83a10.81,10.81,0,0,1-7-2.5A7.93,7.93,0,0,1,218.27,17a7.93,7.93,0,0,1,2.78-6.32,10.81,10.81,0,0,1,7-2.5V.91h2.8V8.19a10.81,10.81,0,0,1,7,2.5A7.93,7.93,0,0,1,240.73,17,7.93,7.93,0,0,1,238,23.33a10.81,10.81,0,0,1-7,2.5ZM223,12.44A5.82,5.82,0,0,0,221.06,17,5.82,5.82,0,0,0,223,21.58a7.84,7.84,0,0,0,5.13,1.8V10.64A7.84,7.84,0,0,0,223,12.44Zm7.93-1.8V23.38a7.84,7.84,0,0,0,5.13-1.8A5.82,5.82,0,0,0,237.94,17,5.82,5.82,0,0,0,236,12.44,7.84,7.84,0,0,0,230.9,10.64Z"/><path class="cls-2" d="M258.37,21.91a1.15,1.15,0,0,0,1.3,1.29A4.24,4.24,0,0,0,261,23v2.28a6.22,6.22,0,0,1-2.1.38,2.9,2.9,0,0,1-3.08-2,9.89,9.89,0,0,1-6.54,2.24,6.74,6.74,0,0,1-4.18-1.31,4.47,4.47,0,0,1-1.74-3.8,4.66,4.66,0,0,1,2.23-4.32,10.15,10.15,0,0,1,5.37-1.35,21.18,21.18,0,0,1,4.65.52V15a3.92,3.92,0,0,0-1.26-3.06,5.06,5.06,0,0,0-3.53-1.14A15.43,15.43,0,0,0,244.65,12V9.31a19.77,19.77,0,0,1,6.41-1.12A7.46,7.46,0,0,1,256.43,10a6.92,6.92,0,0,1,1.94,5.3Zm-12.18-1.33a2.4,2.4,0,0,0,1.07,2.12,4.48,4.48,0,0,0,2.57.71A7.47,7.47,0,0,0,255.57,21V17.88a21.85,21.85,0,0,0-4.27-.49,8,8,0,0,0-3.62.76A2.54,2.54,0,0,0,246.19,20.58Z"/><path class="cls-2" d="M266.49,11.41a8.75,8.75,0,0,1,6.79-3.22,8,8,0,0,1,6,2.52,8.81,8.81,0,0,1,2.39,6.3,8.81,8.81,0,0,1-2.39,6.3,8,8,0,0,1-6,2.52,8.18,8.18,0,0,1-6.51-2.94V33.11H264V8.61h2.52Zm10.7,10.11A6.12,6.12,0,0,0,278.88,17a6.16,6.16,0,0,0-1.69-4.52A5.71,5.71,0,0,0,273,10.78,6.32,6.32,0,0,0,269.19,12a7.14,7.14,0,0,0-2.42,2.94v4.2a7.14,7.14,0,0,0,2.42,2.94A6.32,6.32,0,0,0,273,23.24,5.68,5.68,0,0,0,277.19,21.52Z"/><path class="cls-2" d="M288.37,25.41h-2.66V8.61h3l6.13,9.31L301,8.61h3.05v16.8h-2.66V12.74L295.93,21h-2.1l-5.46-8.29Z"/><path class="cls-2" d="M322.88,21.91a1.14,1.14,0,0,0,1.29,1.29,4.24,4.24,0,0,0,1.3-.24v2.28a6.22,6.22,0,0,1-2.1.38,2.89,2.89,0,0,1-3.08-2,9.93,9.93,0,0,1-6.55,2.24,6.76,6.76,0,0,1-4.18-1.31,4.49,4.49,0,0,1-1.73-3.8,4.68,4.68,0,0,1,2.22-4.32,10.15,10.15,0,0,1,5.37-1.35,21.27,21.27,0,0,1,4.66.52V15a3.92,3.92,0,0,0-1.26-3.06,5.09,5.09,0,0,0-3.54-1.14A15.38,15.38,0,0,0,309.16,12V9.31a19.71,19.71,0,0,1,6.4-1.12A7.51,7.51,0,0,1,320.94,10a7,7,0,0,1,1.94,5.3ZM310.7,20.58a2.38,2.38,0,0,0,1.07,2.12,4.46,4.46,0,0,0,2.57.71A7.48,7.48,0,0,0,320.08,21V17.88a21.93,21.93,0,0,0-4.27-.49,7.94,7.94,0,0,0-3.62.76A2.52,2.52,0,0,0,310.7,20.58Z"/><path class="cls-2" d="M156.39,66.69h-2.8V59.41a10.86,10.86,0,0,1-7.06-2.5,8,8,0,0,1-2.78-6.32,8,8,0,0,1,2.78-6.32,10.92,10.92,0,0,1,7.06-2.5V34.49h2.8v7.28a10.91,10.91,0,0,1,7.05,2.5,8,8,0,0,1,2.78,6.32,8,8,0,0,1-2.78,6.32,10.85,10.85,0,0,1-7.05,2.5ZM148.46,46a6.42,6.42,0,0,0,0,9.14,7.84,7.84,0,0,0,5.13,1.8V44.22A7.84,7.84,0,0,0,148.46,46Zm7.93-1.8V57a7.83,7.83,0,0,0,5.12-1.8,6.42,6.42,0,0,0,0-9.14A7.83,7.83,0,0,0,156.39,44.22Z"/><path class="cls-2" d="M183.65,55.49a1.14,1.14,0,0,0,1.29,1.3,4.28,4.28,0,0,0,1.3-.25v2.28a6.22,6.22,0,0,1-2.1.38,2.88,2.88,0,0,1-3.08-2,9.92,9.92,0,0,1-6.54,2.24,6.77,6.77,0,0,1-4.19-1.31,4.49,4.49,0,0,1-1.73-3.8A4.68,4.68,0,0,1,170.82,50a10.15,10.15,0,0,1,5.37-1.35,21.28,21.28,0,0,1,4.66.53v-.6a3.92,3.92,0,0,0-1.26-3.06,5.09,5.09,0,0,0-3.54-1.14,15.38,15.38,0,0,0-6.12,1.26V42.89a20,20,0,0,1,6.4-1.12,7.51,7.51,0,0,1,5.38,1.84,7,7,0,0,1,1.94,5.3Zm-12.18-1.33a2.37,2.37,0,0,0,1.07,2.12,4.49,4.49,0,0,0,2.57.72,7.51,7.51,0,0,0,5.74-2.45V51.47a21.19,21.19,0,0,0-4.27-.49,8,8,0,0,0-3.62.75A2.54,2.54,0,0,0,171.47,54.16Z"/><path class="cls-2" d="M191.56,45a8.77,8.77,0,0,1,6.79-3.22,7.94,7.94,0,0,1,6,2.52,8.78,8.78,0,0,1,2.4,6.3,8.78,8.78,0,0,1-2.4,6.3,7.94,7.94,0,0,1-6,2.52,8.18,8.18,0,0,1-6.51-2.94V66.69H189V42.19h2.52Zm10.69,10.12a6.16,6.16,0,0,0,1.7-4.52,6.14,6.14,0,0,0-1.7-4.51A5.68,5.68,0,0,0,198,44.36a6.32,6.32,0,0,0-3.78,1.19,7.18,7.18,0,0,0-2.41,2.94v4.2a7.11,7.11,0,0,0,2.41,2.94A6.25,6.25,0,0,0,198,56.82,5.71,5.71,0,0,0,202.25,55.11Z"/><path class="cls-2" d="M213.22,59h-2.66V42.19h3.05l6.12,9.31,6.13-9.31h3V59h-2.66V46.32l-5.46,8.3h-2.1l-5.46-8.3Z"/><path class="cls-2" d="M236.25,59h-2.38V42.19h2.8V54.48L247,42.19h2.38V59h-2.8V46.71Z"/><path class="cls-2" d="M257,59h-2.66V42.19h3.05l6.12,9.31,6.13-9.31h3V59H270V46.32l-5.46,8.3h-2.1L257,46.32Z"/><path class="cls-2" d="M291.24,50.84a9.39,9.39,0,0,1-.77,3.9,6.91,6.91,0,0,1-2.07,2.69,8.91,8.91,0,0,1-2.8,1.49,10,10,0,0,1-3.15.49,12.4,12.4,0,0,1-6-1.47V55.32a10.17,10.17,0,0,0,5.42,1.5c4.09,0,6.24-1.64,6.48-4.93h-8.68V49.3h8.68a4.78,4.78,0,0,0-2.17-3.75,8.47,8.47,0,0,0-4.59-1.19,8.69,8.69,0,0,0-5,1.51V43.28a9.65,9.65,0,0,1,5.29-1.51,9.87,9.87,0,0,1,6.54,2.31Q291.25,46.39,291.24,50.84Z"/><path class="cls-2" d="M297.85,59h-2.8V42.19h2.8v7h3.4l5.32-7h3.25l-6.37,8.37L310.59,59H307.3l-6.16-7.21h-3.29Z"/><path class="cls-2" d="M311.15,50.66a9.27,9.27,0,0,1,.81-3.95,7.49,7.49,0,0,1,2.11-2.8,9.85,9.85,0,0,1,2.91-1.6,10.1,10.1,0,0,1,3.27-.54,9.18,9.18,0,0,1,5.18,1.37v2.73a7.55,7.55,0,0,0-4.83-1.51,7.26,7.26,0,0,0-4.69,1.58,5.6,5.6,0,0,0-2,4.65,5.67,5.67,0,0,0,1.94,4.64,7.1,7.1,0,0,0,4.64,1.59,9.69,9.69,0,0,0,5.08-1.36v2.8a12.38,12.38,0,0,1-5.46,1.15,9.47,9.47,0,0,1-6.32-2.27A8,8,0,0,1,311.15,50.66Z"/></svg>