<?xml version="1.0" standalone="no"?>
<!DOCTYPE svg PUBLIC "-//W3C//DTD SVG 20010904//EN"
 "http://www.w3.org/TR/2001/REC-SVG-20010904/DTD/svg10.dtd">
<svg version="1.0" xmlns="http://www.w3.org/2000/svg"
 width="1024.000000pt" height="1024.000000pt" viewBox="0 0 1024.000000 1024.000000"
 preserveAspectRatio="xMidYMid meet">
<metadata>
Created by potrace 1.14, written by Peter Selinger 2001-2017
</metadata>
<g transform="translate(0.000000,1024.000000) scale(0.100000,-0.100000)"
fill="#000000" stroke="none">
<path d="M2548 8135 c-2 -2 -37 -6 -78 -9 -75 -6 -104 -9 -183 -22 -23 -4 -51
-8 -62 -9 -44 -7 -164 -35 -230 -55 -38 -11 -80 -23 -92 -25 -92 -21 -513
-205 -533 -234 -3 -4 -13 -10 -23 -14 -44 -16 -307 -199 -315 -219 -2 -4 -8
-8 -12 -8 -13 0 -94 -73 -220 -200 -122 -122 -174 -181 -258 -295 -28 -38 -56
-76 -62 -82 -6 -7 -8 -13 -5 -13 3 0 -4 -9 -15 -20 -11 -11 -20 -26 -20 -34 0
-7 -7 -19 -15 -26 -8 -7 -21 -24 -29 -39 -7 -14 -26 -48 -41 -76 -39 -72 -79
-149 -80 -155 0 -3 -5 -12 -10 -20 -23 -36 -126 -307 -141 -372 -2 -10 -6 -26
-8 -35 -2 -10 -9 -30 -14 -44 -6 -15 -14 -46 -17 -70 -4 -24 -8 -46 -10 -50
-2 -3 -7 -21 -10 -40 -3 -19 -10 -56 -15 -84 -25 -133 -33 -243 -33 -445 0
-96 3 -204 7 -240 8 -75 25 -204 32 -240 3 -14 7 -38 10 -55 17 -95 81 -314
119 -405 14 -36 28 -73 30 -83 6 -26 143 -301 171 -343 13 -19 24 -37 24 -40
0 -7 127 -192 143 -209 7 -7 21 -25 32 -41 63 -88 307 -347 349 -371 8 -4 32
-24 53 -43 37 -34 93 -78 139 -110 97 -67 195 -130 203 -130 5 0 11 -3 13 -7
7 -17 264 -144 378 -188 133 -51 340 -114 425 -129 17 -2 41 -7 55 -11 14 -3
41 -7 60 -10 19 -3 46 -7 60 -10 164 -32 620 -32 785 1 11 2 36 6 55 9 19 3
46 7 60 10 14 3 36 7 50 10 14 3 68 16 120 30 114 30 125 33 125 35 0 1 8 3
18 5 85 16 431 176 582 268 54 33 214 143 241 166 17 14 53 44 80 66 59 49
171 154 229 215 81 86 106 115 163 190 31 41 60 77 65 78 4 2 7 10 7 17 0 7 4
15 9 17 7 3 191 280 236 356 11 17 23 32 27 32 4 0 8 4 8 9 0 10 239 381 251
391 3 3 11 15 18 27 9 17 244 379 301 463 5 8 32 49 58 90 27 41 83 127 124
190 41 63 119 183 173 265 54 83 150 230 214 328 64 98 139 206 166 240 271
337 652 515 1090 510 150 -1 362 -47 498 -107 31 -14 58 -25 60 -23 1 1 16 -8
34 -21 17 -12 34 -22 37 -22 25 0 196 -129 284 -214 166 -160 331 -448 366
-638 2 -15 7 -31 10 -36 2 -4 8 -28 11 -53 3 -24 9 -62 12 -84 7 -54 7 -283
-1 -320 -4 -16 -9 -43 -11 -60 -2 -16 -6 -41 -10 -55 -3 -14 -7 -37 -10 -52
-8 -45 -70 -209 -105 -278 -42 -84 -128 -213 -180 -270 -22 -25 -49 -54 -58
-65 -38 -43 -153 -138 -218 -182 -74 -49 -243 -133 -309 -153 -22 -7 -47 -15
-55 -18 -25 -8 -34 -11 -65 -17 -16 -3 -39 -8 -49 -12 -11 -3 -61 -11 -110
-17 -118 -15 -232 -12 -381 10 -123 18 -338 93 -435 153 -28 17 -53 31 -56 31
-3 0 -47 31 -97 69 -148 111 -281 261 -364 409 -19 34 -36 62 -38 62 -1 0 -36
-51 -76 -113 -40 -61 -131 -199 -201 -306 -70 -107 -128 -195 -128 -196 0 -2
-29 -46 -65 -99 -36 -53 -65 -100 -65 -105 0 -5 -3 -11 -8 -13 -4 -1 -85 -122
-180 -268 -94 -146 -177 -271 -182 -277 -6 -7 -29 -43 -53 -80 -23 -38 -45
-70 -49 -73 -4 -3 -13 -17 -20 -30 -22 -41 -92 -145 -100 -148 -5 -2 -8 -9 -8
-16 0 -6 -7 -21 -16 -31 -8 -11 -93 -139 -189 -285 -95 -146 -229 -350 -298
-455 -68 -104 -132 -202 -142 -217 l-17 -28 804 0 805 0 89 138 c48 75 92 139
96 140 4 2 8 9 8 16 0 7 8 21 18 32 9 11 22 29 29 40 24 39 116 182 174 269
96 145 99 150 102 158 1 4 22 1 47 -8 46 -16 251 -70 305 -80 43 -7 144 -24
185 -30 165 -23 530 -24 680 -1 155 24 215 35 300 56 41 10 99 26 129 35 30 9
62 18 70 20 14 3 127 46 206 78 133 54 403 203 486 268 20 16 39 26 43 22 3
-3 6 -1 6 5 0 5 16 20 35 32 20 12 41 27 48 33 6 7 50 44 97 84 116 98 264
251 350 363 19 25 37 47 40 50 3 3 26 34 51 70 24 36 47 67 52 68 4 2 7 8 7
14 0 6 11 26 25 44 14 18 30 43 35 56 6 13 20 39 32 58 52 86 129 249 173 370
15 41 32 84 37 95 5 12 10 27 12 35 1 8 8 35 15 60 7 25 12 45 11 45 -1 0 3
13 9 28 6 15 13 40 16 55 3 15 7 38 10 52 45 203 58 323 59 545 1 156 -7 313
-18 375 -3 14 -8 45 -11 70 -7 57 -24 144 -39 205 -1 6 -6 26 -10 45 -4 19
-11 46 -16 60 -7 22 -52 166 -55 180 -1 3 -7 18 -13 33 -7 16 -12 31 -12 34 0
6 -15 42 -51 118 -12 28 -23 52 -24 55 -3 16 -51 109 -67 133 -11 15 -17 27
-14 27 3 0 -17 36 -44 80 -28 44 -50 84 -50 89 0 5 -4 11 -8 13 -5 2 -30 34
-56 72 -25 38 -62 88 -80 110 -19 23 -51 61 -71 86 -42 52 -192 206 -256 265
-110 99 -410 315 -438 315 -5 0 -11 3 -13 8 -3 8 -243 128 -313 158 -122 50
-302 105 -490 149 -36 9 -171 31 -255 42 -71 9 -467 11 -535 2 -38 -5 -89 -11
-112 -14 -49 -6 -107 -15 -137 -21 -11 -3 -43 -9 -71 -15 -27 -6 -57 -12 -65
-13 -8 -1 -31 -7 -50 -13 -19 -6 -75 -23 -125 -38 -383 -115 -819 -381 -1105
-676 -121 -125 -231 -254 -276 -324 -10 -16 -24 -37 -31 -45 -7 -8 -37 -53
-68 -100 -30 -47 -59 -92 -65 -100 -5 -8 -27 -42 -49 -75 -21 -33 -75 -116
-120 -184 -45 -68 -81 -127 -81 -131 0 -5 -3 -10 -8 -12 -4 -1 -41 -55 -81
-118 -41 -63 -78 -116 -83 -118 -4 -2 -8 -8 -8 -13 0 -6 -31 -57 -70 -115 -38
-57 -70 -109 -70 -114 0 -6 -3 -10 -8 -10 -4 0 -18 -20 -32 -45 -14 -25 -27
-45 -30 -45 -3 0 -16 -20 -30 -45 -14 -25 -28 -45 -32 -45 -5 0 -8 -7 -8 -15
0 -8 -5 -15 -11 -15 -5 0 -7 -5 -4 -10 3 -6 -1 -13 -9 -16 -9 -3 -16 -11 -16
-17 0 -5 -11 -24 -23 -41 -13 -17 -26 -36 -28 -41 -2 -6 -47 -75 -100 -155
-123 -185 -250 -380 -264 -402 -16 -28 -149 -232 -157 -243 -5 -5 -25 -35 -45
-65 -20 -30 -39 -57 -43 -60 -3 -3 -13 -15 -22 -28 -37 -55 -162 -174 -248
-238 -179 -131 -379 -214 -606 -251 -62 -10 -345 -10 -404 0 -64 10 -89 15
-110 22 -10 3 -28 8 -40 10 -49 9 -181 61 -259 102 -125 65 -225 138 -327 238
-88 87 -214 246 -214 271 0 7 -4 14 -8 16 -19 7 -118 236 -138 318 -69 287
-61 532 26 790 34 100 109 255 153 315 81 112 145 186 218 250 122 108 197
156 369 240 24 12 145 55 165 59 6 1 19 5 30 9 22 7 48 12 140 28 94 17 293
18 391 3 118 -18 266 -57 288 -76 6 -4 16 -8 24 -8 27 0 246 -117 289 -155 6
-5 26 -21 45 -34 107 -79 287 -289 353 -414 11 -20 22 -37 26 -37 4 0 22 25
40 56 19 31 39 61 44 67 6 7 35 50 65 97 30 47 58 87 63 88 4 2 7 8 7 13 0 5
29 52 65 105 36 53 65 98 65 100 0 4 146 226 191 291 16 23 29 46 29 51 0 6 4
12 8 14 5 2 29 35 53 73 24 39 47 72 51 73 4 2 8 8 8 13 0 11 72 123 83 127 4
2 7 11 7 21 0 27 -197 220 -317 312 -32 24 -67 52 -77 61 -11 10 -28 20 -38
24 -10 3 -18 9 -18 12 0 4 -16 16 -35 26 -19 11 -35 23 -35 28 0 4 -5 8 -11 8
-6 0 -23 8 -37 19 -51 36 -225 127 -332 175 -36 16 -76 34 -90 40 -14 6 -79
29 -145 50 -66 22 -127 41 -135 44 -21 7 -32 10 -57 16 -49 13 -69 17 -93 21
-14 2 -59 11 -100 19 -41 8 -102 18 -135 21 -33 4 -73 8 -90 11 -35 5 -403 13
-407 9z"/>
</g>
</svg>
